<?xml version="1.0" encoding="UTF-8"?>
<svg width="219px" height="310px" viewBox="0 0 219 310" version="1.1" xmlns="http://www.w3.org/2000/svg" xmlns:xlink="http://www.w3.org/1999/xlink">
    <title>Group 13</title>
    <g id="Page-1" stroke="none" stroke-width="1" fill="none" fill-rule="evenodd">
        <g id="Artboard-1" transform="translate(-188.000000, -263.000000)">
            <g id="Group-13" transform="translate(188.000000, 263.889800)">
                <path d="M4.1467,282.1415 L0.5448,286.2605 C4.401,289.5742 9.0116,291.2268 14.3764,291.2268 C22.674,291.1339 26.9115,287.6249 27.0895,280.7007 C27.0895,278.1325 26.2845,275.8866 24.6826,273.9457 C23.0637,271.9711 20.5551,270.759 17.1563,270.293 C15.436,270.0809 14.0799,269.8859 13.0883,269.7249 C11.3,269.3944 9.9949,268.7926 9.1896,267.9368 C8.376,267.0978 7.9693,266.1484 7.9693,265.1059 C8.003,263.3685 8.6048,262.0631 9.7829,261.1819 C10.9102,260.3428 12.317,259.919 14.0037,259.919 C17.2666,259.9868 20.2501,260.9106 22.9705,262.699 L26.0217,258.1817 C22.691,255.783 18.7752,254.5287 14.2749,254.4269 C10.5372,254.4609 7.6472,255.4355 5.6131,257.3593 C3.5112,259.3002 2.4601,261.8429 2.4601,265.0041 C2.4601,267.64 3.2992,269.8692 4.9688,271.7083 C6.5877,273.4964 8.9523,274.6493 12.0628,275.1663 C13.8001,275.4121 15.402,275.6408 16.8598,275.8358 C20.038,276.3781 21.6059,277.997 21.5807,280.7007 C21.5129,283.9974 19.1312,285.6757 14.4274,285.7435 C10.4524,285.7095 7.0284,284.5059 4.1467,282.1415 Z M32.4036,301.355 L37.5905,301.355 L37.5905,288.1759 C38.5313,289.0997 39.5654,289.8285 40.6924,290.3626 C41.735,290.9388 42.9216,291.2268 44.2437,291.2268 C45.8455,291.1931 47.2186,290.8711 48.3627,290.2608 C49.5237,289.659 50.4561,288.871 51.1681,287.8791 C51.8799,287.0316 52.3717,285.9467 52.6342,284.6247 C52.88,283.2941 53.0072,281.1074 53.0072,278.0647 C53.0072,274.9373 52.88,272.7254 52.6342,271.4115 C52.3717,270.0894 51.8799,269.0216 51.1681,268.2078 C49.7188,266.0467 47.4051,264.9193 44.2437,264.8346 C41.5315,264.9193 39.3111,265.9197 37.5905,267.8351 L37.5905,265.1569 L32.4036,265.1569 L32.4036,301.355 Z M42.6758,286.04 C41.5147,286.04 40.5994,285.7942 39.9214,285.2942 C39.2093,284.8112 38.6923,284.1839 38.3618,283.4043 C38.0483,282.633 37.8362,281.76 37.7347,280.8021 C37.6415,279.8953 37.5905,278.98 37.5905,278.0647 C37.5905,277.0902 37.6415,276.1238 37.7347,275.1663 C37.8362,274.2592 38.0483,273.4117 38.3618,272.6321 C38.6923,271.8523 39.2093,271.225 39.9214,270.742 C40.5994,270.259 41.5147,270.0217 42.6758,270.0217 C43.9046,270.0217 44.871,270.2249 45.5827,270.6402 C46.2948,271.0895 46.8033,271.7083 47.0998,272.4796 C47.4304,273.2254 47.6509,274.0897 47.7694,275.0645 C47.8034,276.0391 47.8204,277.0391 47.8204,278.0647 C47.8204,279.0393 47.8034,279.9971 47.7694,280.9209 C47.6509,281.8617 47.4304,282.7263 47.0998,283.5058 C46.8033,284.2516 46.2948,284.8619 45.5827,285.3449 C44.871,285.8112 43.9046,286.04 42.6758,286.04 Z M57.5245,278.0225 C57.5245,280.7344 57.7451,282.8026 58.1941,284.2264 C58.6604,285.6502 59.3722,286.8876 60.33,287.9301 C61.0418,288.7352 62.0336,289.464 63.3132,290.1083 C64.5675,290.8201 66.1779,291.1931 68.1528,291.2268 C70.1869,291.1931 71.831,290.8201 73.0938,290.1083 C73.7719,289.8115 74.3226,289.4557 74.7549,289.0402 C75.238,288.6759 75.645,288.3114 75.9755,287.9301 C77.0008,286.8876 77.7299,285.6502 78.1622,284.2264 C78.5774,282.8026 78.7807,280.7344 78.7807,278.0225 C78.7807,275.3018 78.5774,273.2169 78.1622,271.7591 C77.7299,270.3352 77.0008,269.1316 75.9755,268.1571 C75.2975,267.301 74.3397,266.5297 73.0938,265.8517 C71.831,265.2076 70.1869,264.8686 68.1528,264.8346 C66.1779,264.8686 64.5675,265.2076 63.3132,265.8517 C62.0336,266.5297 61.0418,267.301 60.33,268.1571 C59.3722,269.1316 58.6604,270.3352 58.1941,271.7591 C57.7451,273.2169 57.5245,275.3018 57.5245,278.0225 Z M73.5939,278.0647 C73.5939,279.8191 73.5091,281.1159 73.3396,281.938 C73.1786,282.7855 72.8396,283.5313 72.3225,284.1754 C71.9413,284.6754 71.3817,285.1077 70.6359,285.4892 C69.9241,285.8535 69.0936,286.04 68.1528,286.04 C67.2797,286.04 66.4661,285.8535 65.7203,285.4892 C65.0083,285.1077 64.432,284.6754 63.9827,284.1754 C63.5337,283.5313 63.2117,282.7855 63.0167,281.938 C62.8131,281.1159 62.7114,279.8106 62.7114,278.0225 C62.7114,276.2171 62.8131,274.8865 63.0167,274.0475 C63.2117,273.2339 63.5337,272.5219 63.9827,271.9116 C64.432,271.3268 65.0083,270.8778 65.7203,270.5472 C66.4661,270.1997 67.2797,270.0217 68.1528,270.0217 C69.0936,270.0217 69.9241,270.1997 70.6359,270.5472 C71.3817,270.8778 71.9413,271.3268 72.3225,271.9116 C72.8396,272.5219 73.1786,273.2339 73.3396,274.0475 C73.5091,274.8865 73.5939,276.2256 73.5939,278.0647 Z M84.2218,290.9303 L89.4086,290.9303 L89.4086,275.4121 C89.4426,273.5219 89.9852,272.1573 91.0445,271.3183 C91.9853,270.454 93.1209,270.0217 94.4515,270.0217 C95.6295,270.0217 96.7569,270.454 97.8502,271.3183 L101.6217,266.818 C100.0876,265.5296 98.2825,264.8686 96.2143,264.8346 C93.4429,264.8346 91.214,265.8517 89.5104,267.8858 L89.4086,267.8858 L89.4086,265.1569 L84.2218,265.1569 L84.2218,290.9303 Z M104.3002,265.1569 L101.715,265.1569 L101.715,269.1064 L104.3002,269.1064 L104.3002,284.5739 C104.3002,286.6078 104.8932,288.1674 106.0883,289.2437 C107.2493,290.3711 108.7327,290.9303 110.5548,290.9303 L113.2585,290.9303 L113.2585,286.04 L111.3261,286.04 C110.0633,286.074 109.453,285.4382 109.487,284.1246 L109.487,269.1064 L113.2585,269.1064 L113.2585,265.1569 L109.487,265.1569 L109.487,257.3086 L104.3002,257.3086 L104.3002,265.1569 Z M149.3804,280.8021 C147.8548,284.0991 145.5496,285.7435 142.4729,285.7435 C141.1849,285.7435 140.0745,285.4722 139.1422,284.9212 C138.2014,284.4551 137.4386,283.8534 136.8623,283.1076 C136.1505,282.3277 135.6757,281.3107 135.447,280.0563 C135.1842,278.7935 135.0487,276.3866 135.0487,272.8269 C135.0487,269.2674 135.1842,266.8435 135.447,265.5551 C135.6757,264.3263 136.1505,263.326 136.8623,262.5465 C137.4386,261.8089 138.2014,261.1904 139.1422,260.6903 C140.0745,260.2073 141.1849,259.953 142.4729,259.919 C144.2273,259.953 145.7191,260.4613 146.9395,261.4361 C148.1175,262.4617 148.9314,263.699 149.3804,265.1569 L155.186,265.1569 C154.6097,262.1312 153.2199,259.5885 151.0163,257.5374 C148.8126,255.495 145.9649,254.4609 142.4729,254.4269 C139.6252,254.4609 137.2521,255.139 135.3452,256.4695 C133.4043,257.7746 131.9975,259.2665 131.1244,260.9361 C130.5821,261.8089 130.1754,262.9617 129.9126,264.3856 C129.6668,265.8094 129.5396,268.6231 129.5396,272.8269 C129.5396,276.9714 129.6668,279.7683 129.9126,281.2177 C130.0396,281.9972 130.2091,282.6415 130.4041,283.1583 C130.6159,283.6586 130.8619,284.1754 131.1244,284.7264 C131.9975,286.396 133.4043,287.8624 135.3452,289.142 C137.2521,290.4643 139.6252,291.1591 142.4729,291.2268 C145.6174,291.2268 148.3463,290.337 150.6432,288.5487 C152.8724,286.7436 154.3895,284.1586 155.186,280.8021 L149.3804,280.8021 Z M172.1114,290.9303 L177.2982,290.9303 L177.2982,273.3269 C177.273,270.1827 176.2897,267.962 174.3491,266.674 C172.4082,265.4111 169.823,264.8009 166.577,264.8346 C162.7378,264.7668 159.8306,266.0212 157.8645,268.6064 L161.9325,271.7083 C162.3818,270.9707 162.9921,270.437 163.7716,270.1235 C164.5174,269.8607 165.5345,269.7249 166.8228,269.7249 C170.3826,269.6572 172.1454,270.759 172.1114,273.0304 L172.1114,275.7341 L164.9412,275.7341 C162.1867,275.7678 160.1019,276.5139 158.678,277.9715 C157.2542,279.3953 156.5421,281.1922 156.5421,283.3533 C156.5421,285.6247 157.3644,287.4894 159,288.9472 C160.5597,290.4303 162.78,291.1931 165.6532,291.2268 C167.4076,291.2268 168.7892,291.0151 169.7808,290.5828 C170.7893,290.1675 171.5351,289.5235 172.0096,288.6419 L172.1114,288.6419 L172.1114,290.9303 Z M172.1114,281.8702 C172.1114,283.8026 171.7046,285.0399 170.8996,285.591 C170.001,286.1418 168.4669,286.396 166.3058,286.362 C164.5854,286.362 163.3478,286.023 162.602,285.3449 C161.8225,284.7264 161.4324,283.9806 161.4324,283.1076 C161.4069,281.1074 162.8988,280.0734 165.9075,280.0056 L172.1114,280.0056 L172.1114,281.8702 Z M184.8242,290.9303 L190.0113,290.9303 L190.0113,269.1064 L195.2067,269.1064 L195.2067,265.1569 L190.0113,265.1569 L190.0113,261.7581 C189.9518,260.2836 190.6979,259.5715 192.2487,259.6222 L195.2067,259.6222 L195.2067,254.7322 L191.8505,254.7322 C189.8503,254.7322 188.1889,255.266 186.8584,256.3426 C185.5023,257.5036 184.8242,259.3087 184.8242,261.7581 L184.8242,265.1569 L182.2223,265.1569 L182.2223,269.1064 L184.8242,269.1064 L184.8242,290.9303 Z M218.1154,280.0056 L218.1154,275.7341 C218.0817,272.3353 217.0306,269.6742 214.9627,267.7418 C212.9201,265.8349 210.4284,264.8686 207.4875,264.8346 C206.2584,264.8346 205.0211,265.0551 203.7667,265.5044 C202.4869,265.9534 201.3343,266.6822 200.3088,267.6908 C199.3002,268.6826 198.4781,270.0387 197.8256,271.7591 C197.1813,273.4457 196.8593,275.5646 196.8593,278.1155 C196.8593,280.7684 197.2323,282.921 197.9781,284.5739 C198.6562,286.2943 199.5374,287.6419 200.6308,288.5997 C201.1988,289.0657 201.8003,289.4472 202.4447,289.7608 C203.0632,290.1253 203.6905,290.4218 204.3345,290.6338 C205.6229,291.0321 206.9449,291.2268 208.3095,291.2268 C211.8693,291.2609 214.9627,289.871 217.5902,287.0571 L213.8439,283.8534 C212.1913,285.523 210.3097,286.362 208.2078,286.362 C206.4027,286.362 204.9448,285.8197 203.8345,284.7264 C202.6394,283.6501 202.0461,282.0735 202.0461,280.0056 L218.1154,280.0056 Z M202.0461,275.7341 C202.1479,273.734 202.6904,272.2169 203.665,271.1913 C204.6565,270.2164 205.9364,269.7249 207.4875,269.7249 C209.0383,269.7249 210.3182,270.2164 211.3097,271.1913 C212.3183,272.2169 212.8609,273.734 212.9286,275.7341 L202.0461,275.7341 Z" id="Fill-2" fill="#FFFFFE"></path>
                <path d="M157.9549,308.4249 L162.1777,308.4249 C162.9666,308.4249 163.6236,308.1621 164.152,307.6338 C164.6846,307.1292 164.9548,306.4438 164.9641,305.5775 C164.9641,305.054 164.8326,304.5706 164.5721,304.1267 C164.2926,303.6973 163.8796,303.411 163.3328,303.2678 L163.3328,303.2395 C163.6214,303.1012 163.8654,302.9484 164.0627,302.7794 C164.2597,302.6176 164.41,302.4486 164.5157,302.27 C164.7223,301.8945 164.821,301.5002 164.8116,301.0871 C164.8116,300.2796 164.5627,299.6316 164.0627,299.1412 C163.5675,298.655 162.8257,298.4064 161.8398,298.3993 L157.9549,298.3993 L157.9549,308.4249 Z M161.814,303.9742 C162.3772,303.9836 162.7905,304.1338 163.051,304.4227 C163.3115,304.7161 163.4431,305.0681 163.4431,305.4814 C163.4431,305.8851 163.3115,306.2326 163.051,306.526 C162.7905,306.8239 162.3772,306.979 161.814,306.9883 L159.476,306.9883 L159.476,303.9742 L161.814,303.9742 Z M161.6683,299.7537 C162.2247,299.7631 162.6332,299.8991 162.8937,300.1599 C163.159,300.4391 163.2928,300.7796 163.2928,301.1832 C163.2928,301.5869 163.159,301.9228 162.8937,302.1878 C162.6332,302.4767 162.2247,302.6198 161.6683,302.6198 L159.476,302.6198 L159.476,299.7537 L161.6683,299.7537 Z M168.2903,308.4249 L169.7221,308.4249 L169.7221,304.2982 L172.741,298.3993 L171.1306,298.3993 L169.0063,302.8475 L166.8818,298.3993 L165.2714,298.3993 L168.2903,304.2982 L168.2903,308.4249 Z M178.736,304.8357 L180.1867,300.4533 L180.2148,300.4533 L181.6656,304.8357 L178.736,304.8357 Z M182.8768,308.4249 L184.4775,308.4249 L180.8345,298.3993 L179.5623,298.3993 L175.9169,308.4249 L177.5247,308.4249 L178.2972,306.1833 L182.0998,306.1833 L182.8768,308.4249 Z M187.0715,299.7537 L189.4492,299.7537 C189.9354,299.7537 190.3084,299.8569 190.5644,300.0613 C190.8906,300.296 191.0573,300.6739 191.0667,301.1974 C191.0667,301.6317 190.9258,302.0002 190.6466,302.2984 C190.3626,302.6198 189.9354,302.7843 189.3673,302.7936 L187.0715,302.7936 L187.0715,299.7537 Z M185.5505,308.4249 L187.0715,308.4249 L187.0715,304.1409 L189.0104,304.1409 L191.0809,308.4249 L192.8882,308.4249 L190.5644,303.9742 C191.8391,303.4836 192.4846,302.5589 192.5033,301.1974 C192.4775,300.2702 192.1441,299.559 191.5058,299.059 C190.9774,298.6199 190.2968,298.3993 189.4634,298.3993 L185.5505,298.3993 L185.5505,308.4249 Z M194.1394,308.4249 L198.3622,308.4249 C199.1511,308.4249 199.8082,308.1621 200.3365,307.6338 C200.8692,307.1292 201.1393,306.4438 201.1487,305.5775 C201.1487,305.054 201.0171,304.5706 200.7566,304.1267 C200.4771,303.6973 200.0641,303.411 199.5173,303.2678 L199.5173,303.2395 C199.8059,303.1012 200.05,302.9484 200.2472,302.7794 C200.4443,302.6176 200.5945,302.4486 200.7002,302.27 C200.9069,301.8945 201.0055,301.5002 200.9962,301.0871 C200.9962,300.2796 200.7473,299.6316 200.2472,299.1412 C199.752,298.655 199.0102,298.4064 198.0243,298.3993 L194.1394,298.3993 L194.1394,308.4249 Z M197.9985,303.9742 C198.5618,303.9836 198.9751,304.1338 199.2356,304.4227 C199.4961,304.7161 199.6276,305.0681 199.6276,305.4814 C199.6276,305.8851 199.4961,306.2326 199.2356,306.526 C198.9751,306.8239 198.5618,306.979 197.9985,306.9883 L195.6605,306.9883 L195.6605,303.9742 L197.9985,303.9742 Z M197.8528,299.7537 C198.4093,299.7631 198.8177,299.8991 199.0782,300.1599 C199.3436,300.4391 199.4774,300.7796 199.4774,301.1832 C199.4774,301.5869 199.3436,301.9228 199.0782,302.1878 C198.8177,302.4767 198.4093,302.6198 197.8528,302.6198 L195.6605,302.6198 L195.6605,299.7537 L197.8528,299.7537 Z M204.5029,304.8357 L205.9537,300.4533 L205.9817,300.4533 L207.4325,304.8357 L204.5029,304.8357 Z M208.6437,308.4249 L210.2445,308.4249 L206.6014,298.3993 L205.3292,298.3993 L201.6838,308.4249 L203.2917,308.4249 L204.0641,306.1833 L207.8668,306.1833 L208.6437,308.4249 Z M211.3174,308.4249 L215.5402,308.4249 C216.329,308.4249 216.9861,308.1621 217.5145,307.6338 C218.0471,307.1292 218.3173,306.4438 218.3266,305.5775 C218.3266,305.054 218.1951,304.5706 217.9346,304.1267 C217.6551,303.6973 217.2421,303.411 216.6953,303.2678 L216.6953,303.2395 C216.9838,303.1012 217.2279,302.9484 217.4252,302.7794 C217.6222,302.6176 217.7724,302.4486 217.8782,302.27 C218.0848,301.8945 218.1835,301.5002 218.1741,301.0871 C218.1741,300.2796 217.9252,299.6316 217.4252,299.1412 C216.93,298.655 216.1882,298.4064 215.2023,298.3993 L211.3174,298.3993 L211.3174,308.4249 Z M215.1765,303.9742 C215.7397,303.9836 216.153,304.1338 216.4135,304.4227 C216.674,304.7161 216.8055,305.0681 216.8055,305.4814 C216.8055,305.8851 216.674,306.2326 216.4135,306.526 C216.153,306.8239 215.7397,306.979 215.1765,306.9883 L212.8385,306.9883 L212.8385,303.9742 L215.1765,303.9742 Z M215.0308,299.7537 C215.5872,299.7631 215.9957,299.8991 216.2562,300.1599 C216.5215,300.4391 216.6553,300.7796 216.6553,301.1832 C216.6553,301.5869 216.5215,301.9228 216.2562,302.1878 C215.9957,302.4767 215.5872,302.6198 215.0308,302.6198 L212.8385,302.6198 L212.8385,299.7537 L215.0308,299.7537 Z" id="Fill-3" fill="#FFFFFE"></path>
                <path d="M68.1414,30.1211 C68.5312,33.8243 69.0686,37.5124 69.4485,41.2168 C69.8122,44.7652 70.6781,47.8836 73.9856,50.0209 C77.4059,52.2311 79.5027,55.562 80.2669,59.5889 C80.7851,62.3184 81.1456,65.0839 81.4436,67.8474 C81.767,70.8465 81.4986,73.8033 80.2544,76.6056 C77.9028,81.9004 72.6233,83.6823 67.5651,80.906 C64.5006,79.2243 62.7017,76.471 61.5231,73.3523 C58.4503,65.2222 55.5462,57.0287 52.5117,48.8836 C51.8595,47.1324 51.0085,45.4435 50.1199,43.7957 C49.5595,42.7568 48.8695,42.8614 48.3581,43.9346 C48.2408,44.1812 48.1597,44.4454 48.0716,44.7048 C46.8127,48.4049 47.0094,52.1831 47.9434,55.85 C49.217,60.8521 50.7718,65.7829 52.2722,70.7254 C52.4556,71.3298 52.662,72.3386 53.5158,72.3089 C57.12,72.1858 57.5243,73.7667 58.6488,77.2117 C60.1579,80.9378 62.1751,86.4594 63.7792,90.158 C64.1361,90.9809 64.5621,91.32 65.5092,91.3186 C94.1626,91.2797 122.8155,91.2749 151.4687,91.2587 C152.8001,91.2582 154.4167,91.6522 155.3819,91.0422 C156.3335,90.4409 156.6257,88.7963 157.2071,87.6094 C157.2417,87.5388 157.2822,87.4708 157.3106,87.398 C158.7443,83.7356 159.7847,80.6152 161.4472,76.3386 C162.6992,72.8684 163.1247,72.3497 166.2267,72.3658 C166.9521,72.3695 167.2452,72.1393 167.4498,71.4548 C168.2917,68.6422 169.2184,65.8558 170.0753,63.0481 C171.5068,58.3579 172.9459,53.6484 172.5743,48.6648 C172.4541,47.0496 171.9779,45.4378 171.4855,43.881 C171.1496,42.8189 170.3925,42.784 169.8111,43.7475 C169.1245,44.8854 168.4116,46.041 167.9558,47.2792 C165.0333,55.2176 162.195,63.187 159.2934,71.133 C158.0768,74.4643 156.6649,77.7094 153.7508,79.9723 C148.9722,83.6834 142.929,82.8398 140.17,77.4662 C139.2462,75.6676 138.5503,73.5411 138.5078,71.548 C138.4364,68.202 138.882,64.8328 139.2732,61.4924 C139.8707,56.3923 142.2935,52.3481 146.5976,49.4619 C148.5943,48.1231 149.7435,46.2298 150.0426,43.828 C150.6387,39.0443 151.2773,34.2656 151.8241,29.4765 C151.9423,28.4424 152.4177,26.5704 151.6974,26.3196 C150.762,26.1115 150.2044,27.3766 149.9918,28.225 C149.1553,31.5662 148.4237,34.9338 147.6478,38.2903 C147.0866,40.7207 146.5151,43.1486 145.9315,45.6479 C145.2526,45.4886 144.6992,45.3587 144.0864,45.2147 C145.3954,39.7697 146.6792,34.4431 147.9554,29.1148 C148.2746,27.782 149.4178,24.7506 147.8763,25.0423 C147.217,25.2807 146.7938,26.5937 146.5636,27.4557 C145.6026,31.0489 144.7355,34.667 143.8248,38.2738 C143.2907,40.3868 142.7388,42.4955 142.177,44.677 C141.5225,44.5225 141.0057,44.4001 140.4583,44.2702 C140.5292,43.8107 140.5575,43.4601 140.6392,43.1225 C141.8226,38.2123 143.0211,33.3055 144.1978,28.3934 C144.5306,27.0044 145.5805,24.3818 144.454,24.1315 C143.7258,24.0408 142.9931,25.4581 142.7881,26.2331 C141.978,29.2982 141.2982,32.3976 140.5675,35.4834 C139.9288,38.1806 139.2862,40.8766 138.6178,43.6897 C137.8737,43.4859 137.2512,43.3155 136.555,43.125 C137.8777,38.2548 139.1949,33.5119 140.443,28.7508 C140.8736,27.1065 142.1211,24.0141 140.9592,23.6624 C139.9889,23.3676 139.1572,25.2183 138.7626,26.3164 C137.0548,31.0699 135.3908,35.8394 133.7493,40.6164 C132.8635,43.1936 132.9338,45.7581 134.4551,48.0763 C136.707,51.5071 136.7631,55.0697 135.3112,58.7437 C133.8545,62.4293 132.3308,66.1157 129.6093,69.0819 C127.6041,71.268 125.0424,72.4132 122.0119,71.9574 C118.1783,71.3808 115.7819,69.1451 114.6738,65.4175 C113.1003,60.1244 112.5442,54.6793 111.9469,49.2207 C111.4976,45.1133 112.5235,42.0414 116.255,39.7722 C120.552,37.1595 122.9774,33.1057 123.2773,28.0348 C123.4431,25.2279 123.3388,22.3845 123.0981,19.5799 C122.773,15.79 121.6655,12.226 119.4105,9.0656 C114.836,2.6542 106.0083,2.102 101.3377,8.5103 C97.6719,13.5401 96.118,19.2559 96.2432,25.4198 C96.3742,31.8879 99.2695,36.9271 104.6134,40.5033 C106.9514,42.0677 108.1522,44.1174 108.043,46.8985 C107.7913,53.3026 107.0291,59.6374 105.04,65.7574 C104.627,67.0288 104.0178,68.3928 103.0991,69.3157 C99.2363,73.1944 93.6076,72.9214 90.0181,68.8044 C87.7699,66.2254 86.445,63.1067 85.0923,60.0212 C83.2506,55.8197 82.7875,51.7205 85.655,47.6483 C87.0905,45.6102 86.9371,43.1769 86.2205,40.8409 C85.6927,39.1205 85.1229,37.411 84.5104,35.719 C83.218,32.1501 81.9172,28.5836 80.5373,25.0485 C79.8879,23.3846 78.3008,22.4001 78.8598,25.7881 C79.827,31.6504 82.0156,37.2536 83.3014,43.1471 C82.6333,43.3266 82.0116,43.4935 81.3398,43.6741 C81.2528,43.3759 81.1907,43.1948 81.1468,43.0094 C79.9083,37.7902 78.6605,32.5731 77.4436,27.3488 C76.6213,23.8194 74.5534,22.982 75.4279,27.0586 C76.1014,30.1979 76.9039,33.3098 77.6502,36.4336 C78.2668,39.0131 78.8742,41.5949 79.5078,44.2702 C78.8343,44.4066 78.2858,44.5174 77.7225,44.6314 C77.6125,44.2328 77.5346,43.9712 77.4677,43.7064 C76.0954,38.2778 74.749,32.8424 73.3271,27.4271 C72.2871,23.4656 71.1212,25.1763 71.7264,28.0419 C72.3648,31.0667 73.144,34.0618 73.8637,37.0694 C74.508,39.7612 75.1455,42.4544 75.8108,45.251 C75.1266,45.3865 74.5744,45.4957 74.0125,45.6071 C73.8946,45.234 73.7951,44.98 73.7342,44.7173 C72.4917,39.3374 71.2788,33.9504 69.9896,28.5816 C69.0108,24.5 67.3939,26.0338 68.1414,30.1211 Z M69.2098,23.0005 C69.5253,20.6406 71.6867,20.2633 73.0822,21.9488 C73.7676,19.8197 75.4398,19.0867 76.9532,20.9958 C78.5346,18.753 80.1974,19.8628 81.7565,21.5602 C82.849,22.7496 83.7748,24.3671 84.2615,25.9029 C85.7395,30.5667 87.4692,35.15 89.0483,39.7824 C90.229,43.2458 90.0198,46.6638 87.963,49.7077 C86.3002,52.1687 86.2525,54.6856 87.2733,57.2016 C88.4321,60.0595 89.8242,62.8426 91.3557,65.5202 C92.0015,66.6492 93.1334,67.6473 94.2726,68.318 C97.143,70.0074 100.7469,68.6513 101.9338,65.5448 C103.443,61.5962 104.0258,57.4352 104.5213,53.2708 C104.7803,51.0927 104.8849,48.8944 105.0114,46.7024 C105.0995,45.1683 104.4461,44.0418 103.1388,43.1605 C95.3251,37.8909 92.3294,30.4309 93.4063,21.2254 C93.9923,16.214 95.5309,11.5031 98.4529,7.3325 C104.2851,-0.9923 115.315,-1.2026 121.5223,6.8713 C123.5406,9.4968 124.825,12.4596 125.5121,15.6874 C126.3832,19.7809 126.6783,23.9203 126.3503,28.0904 C125.8457,34.5012 122.674,39.3416 117.3353,42.7494 C115.4329,43.9635 114.7217,45.4733 114.889,47.6531 C115.3215,53.2912 115.9242,58.893 117.4923,64.3548 C118.1083,66.5001 119.2742,68.1116 121.4591,68.7789 C124.0299,69.5643 126.1998,68.6411 127.733,66.6537 C130.2394,63.4041 131.983,59.7176 133.0511,55.7386 C133.6144,53.6399 133.1526,51.7237 132.006,49.9018 C129.8687,46.5059 129.6966,42.9056 131.0292,39.1789 C131.3852,38.1831 131.7231,37.1805 132.0737,36.1827 C133.2286,32.8951 134.5061,29.6443 135.5076,26.3108 C136.3685,23.4452 137.5284,21.4292 140.1624,20.4133 C141.1789,20.0215 141.72,20.0037 142.9514,20.9754 C144.1986,19.3628 146.2197,19.8367 146.8224,21.9579 C147.3394,21.4749 147.8752,20.6367 149.1786,20.7682 C149.9796,20.949 150.3476,22.0336 150.6676,22.9863 C151.933,21.3085 153.4339,21.9704 154.1757,23.7097 C155.0097,25.6659 155.0695,28.8807 154.7095,31.2031 C154.0488,35.463 153.6102,39.7575 153.0705,44.0367 C152.6501,47.3719 151.1129,50.0708 148.3137,51.945 C144.9164,54.2201 142.8474,57.3391 142.3607,61.3708 C141.9391,64.8608 141.6798,68.3792 141.5556,71.8922 C141.5145,73.0481 141.9743,74.2906 142.4556,75.3833 C144.2712,79.5032 148.4574,80.4332 151.9446,77.5708 C154.0584,75.8354 155.1954,73.4637 156.109,70.9896 C158.7407,63.8622 161.27,56.6968 163.9266,49.579 C164.8269,47.1658 165.918,44.8162 167.0516,42.5011 C167.8178,40.9364 169.0735,39.8867 170.9787,40.0407 C172.8374,40.1909 173.8031,41.4509 174.4197,43.0148 C176.0785,47.222 176.1153,51.5944 175.0132,55.8637 C173.3612,62.2637 171.3699,68.5765 169.4757,74.9122 C169.173,75.9242 166.8781,75.482 166.1266,75.4074 C165.2918,75.3241 164.7804,75.4675 164.4539,76.4778 C162.1017,82.8997 161.0826,85.7748 159.2747,90.376 C158.8878,91.3599 158.3432,92.2837 157.9864,93.2764 C157.6961,94.0837 157.2244,94.2819 156.4072,94.2822 C144.3174,94.2884 132.2274,94.3533015 120.1373,94.3533015 C101.2957,94.3533015 82.4538,94.3083 63.6122,94.3119 C62.7091,94.3119 62.2218,94.0965 61.8423,93.2129 C59.7801,88.4091 57.6705,82.5966 55.5403,76.9585 C55.0136,75.6563 54.6323,75.2674 53.649,75.385 C53.4529,75.3887 53.2564,75.3918 53.0605,75.4054 C50.6117,75.5718 50.5805,75.5814 49.8653,73.1493 C48.1764,67.4066 46.3838,61.6897 44.899,55.8946 C43.8766,51.9031 43.8488,47.8127 45.1913,43.8181 C45.3035,43.4842 45.4209,43.1506 45.5606,42.8277 C46.2047,41.3412 47.1648,40.211 48.897,40.0409 C50.6956,39.8643 52.0032,40.7853 52.7105,42.2755 C54.1502,45.3074 55.5108,48.3878 56.6982,51.5264 C59.2758,58.3377 61.6351,65.2327 64.2829,72.0157 C65.0174,73.8971 66.1844,75.7776 67.6176,77.185 C71.2547,80.7567 75.9809,79.5743 77.684,74.7682 C78.2231,73.2468 78.6126,71.5245 78.4811,69.9431 C78.1735,66.2436 77.6953,62.535 76.9291,58.9052 C76.3471,56.1477 74.5523,53.9613 72.1799,52.4077 C68.7721,50.1751 67.0767,47.0145 66.6476,43.0372 C66.1844,38.7486 65.7476,34.4527 65.1066,30.1891 C64.705,27.5178 64.5876,20.1939 69.2098,23.0005 L69.2098,23.0005 Z" id="Fill-4" fill="#FFFFFE"></path>
                <path d="M32.3665,108.2743 C32.8475,112.3871 33.063,116.3153 33.8065,120.1415 C35.1776,127.2001 37.4842,133.9837 40.714,140.4316 C44.1274,147.2461 48.5569,153.2677 54.5799,158.0132 C61.8159,163.7137 70.1512,166.4239 79.27,166.9769 C79.7487,167.0059 80.3182,167.2664 80.6569,167.6068 C82.7549,169.7183 84.7451,171.9387 86.873,174.0193 C91.0221,178.0757 94.8407,182.3594 96.9817,187.8677 C98.958,192.9522 99.1315,197.9659 96.1454,202.7621 C94.1907,205.9029 91.3611,208.1122 88.2065,209.9516 C87.8643,210.1517 87.3566,210.4888 87.3484,210.7736 C87.2784,213.1122 87.309,215.4559 87.309,217.8087 C102.7272,217.8087 118.0856,217.8087 133.5245,217.8087 C133.5245,215.6937 133.4655,213.6942 133.5497,211.6991 C133.5925,210.6841 133.2617,210.2178 132.3212,209.7892 C124.9661,206.4352 121.221,200.6403 121.3318,192.5857 C121.4398,184.7303 124.9245,178.5834 131.2644,173.9099 C133.9616,171.922 136.3311,169.4907 138.8653,167.2797 C139.1422,167.0382 139.5093,166.8267 139.8639,166.7595 C142.0568,166.3471 144.2695,166.0356 146.4539,165.5868 C150.7699,164.6996 154.9241,163.3358 158.8061,161.2053 C164.0536,158.3256 168.2089,154.2145 171.9396,149.6198 C177.2245,143.1101 181.1457,135.8792 183.0407,127.6851 C184.5184,121.2958 185.5924,114.8084 186.2795,108.2918 C175.8058,108.2918 165.5092,108.2918 155.0857,108.2918 C155.0857,105.4606 155.0857,102.7385 155.0857,99.9719 C124.9052,99.9719 94.8529,99.9719 64.6094,99.9719 C64.6094,102.7079 64.6094,105.4283 64.6094,108.2743 C53.8367,108.2743 43.2535,108.2743 32.3665,108.2743 Z M158.1397,96.9771 C158.1397,99.7845 158.1397,102.4777 158.1397,105.2704 C168.633,105.2704 179.0515,105.2704 189.6579,105.2704 C189.4586,107.1211 189.2845,108.8571 189.083,110.5899 C188.2822,117.4852 187.3493,124.3637 185.2826,131.0161 C181.4827,143.249 174.5112,153.3397 164.3887,161.1767 C158.8416,165.4715 152.3338,167.6692 145.5049,168.8243 C142.5324,169.3269 140.0402,170.177 137.8621,172.4756 C135.6706,174.7887 132.7609,176.4061 130.4464,178.6217 C124.747,184.0767 123.0649,190.769 125.2394,198.3086 C126.4847,202.6266 129.6118,205.4791 133.6963,207.0452 C135.9898,207.9237 136.8901,209.0377 136.6214,211.5319 C136.3328,214.2123 136.4813,216.9421 136.5238,219.6506 C136.5391,220.6325 136.2279,220.8987 135.257,220.8964 C120.8514,220.8916 106.446,220.9271 92.0403,220.9483 C89.4591,220.9529 86.8779,220.951175 84.1957,220.951175 C84.1957,220.0415 84.1903,219.2314 84.1966,218.4187 C84.2184,215.5146 84.2708,212.6082 84.2499,209.7044 C84.2445,208.9765 84.5075,208.6068 85.1071,208.2298 C86.9623,207.0639 88.8902,205.9641 90.5632,204.568 C94.9838,200.8776 96.3728,196.1897 94.7312,190.6267 C93.3491,185.943 90.5428,182.1497 87.25,178.6806 C84.5506,175.8366 81.7627,173.0768 78.9831,170.3105 C78.7166,170.0449 78.2401,169.8941 77.8478,169.8643 C61.9934,168.6534 50.0042,161.0296 41.4719,147.8034 C35.742,138.9213 32.2676,129.129 30.5328,118.7437 C29.7974,114.3438 29.5089,109.869 29.002,105.2928 C39.8196,105.2928 50.6312,105.2928 61.5886,105.2928 C61.5886,102.4658 61.5886,99.7715 61.5886,96.9771 C93.8157,96.9771 125.8968,96.9771 158.1397,96.9771 L158.1397,96.9771 Z" id="Fill-5" fill="#FFFFFE"></path>
                <path d="M133.4675,235.7653 C133.4675,232.4068 133.4675,229.0409 133.4675,225.6825 C117.8897,225.6825 102.4146,225.6825 86.9238,225.6825 C86.9238,229.0812 86.9238,232.3949 86.9238,235.7653 C102.4534,235.7653 117.9014,235.7653 133.4675,235.7653 Z M136.5017,238.7612 C118.9142,238.7612 101.4281,238.7612 83.8729,238.7612 C83.8729,233.3748 83.8729,228.0519 83.8729,222.6346 C101.3887,222.6346 118.9014,222.6346 136.5017,222.6346 C136.5017,228.0071 136.5017,233.3816 136.5017,238.7612 L136.5017,238.7612 Z" id="Fill-6" fill="#FFFFFE"></path>
                <path d="M176.8135,115.394 C175.471,126.291 172.563,135.5249 164.9233,144.672 C160.0401,150.5184 152.6521,156.2073 144.6627,156.179304 C145.2914,154.7077 145.8538,153.3865 146.4207,152.0673 C151.3595,140.5739 152.7482,129.2719 154.8294,117.1473 C155.0967,115.5888 155.2609,115.5661 156.7643,115.5491 C163.9978,115.4669 169.5815,115.4635 176.8135,115.394 Z M40.3834,115.394 C41.7262,126.291 44.6343,135.5249 52.2739,144.672 C57.1572,150.5184 64.5451,156.2073 72.5346,156.179304 C71.9055,154.7077 71.3431,153.3865 70.7762,152.0673 C65.8377,140.5739 64.449,129.2719 62.3675,117.1473 C62.1005,115.5888 61.9361,115.5661 60.4326,115.5491 C53.1991,115.4669 47.6157,115.4635 40.3834,115.394 Z" id="Stroke-7" stroke="#FFFFFE" stroke-width="2.9999"></path>
                <polygon id="Fill-8" fill="#FFFFFE" points="109.9774 164.9635 112.2992 171.8412 119.6662 172.0025 113.8424 176.3358 115.9656 183.3924 110.0446 179.1929 103.9898 183.3924 106.1543 176.4634 100.2891 172.0025 107.5475 171.9203"></polygon>
                <polygon id="Fill-9" fill="#FFFFFE" points="127.7617 157.6416 129.2243 161.9755 133.8669 162.0773 130.1972 164.8082 131.5349 169.2549 127.8039 166.6082 123.9882 169.2549 125.3525 164.8884 121.6564 162.0773 126.2301 162.0254"></polygon>
                <polygon id="Fill-10" fill="#FFFFFE" points="92.6517 157.6416 94.1147 161.9755 98.7573 162.0773 95.0876 164.8082 96.4252 169.2549 92.6943 166.6082 88.8786 169.2549 90.2426 164.8884 86.5465 162.0773 91.1205 162.0254"></polygon>
                <polygon id="Fill-11" fill="#FFFFFE" points="133.5265 145.7854 134.725 149.3361 138.5285 149.4197 135.5218 151.6568 136.618 155.2999 133.5611 153.1317 130.435 155.2999 131.5524 151.7229 128.5245 149.4197 132.2719 149.3769"></polygon>
                <polygon id="Fill-12" fill="#FFFFFE" points="85.5453 145.7854 86.7441 149.3361 90.5473 149.4197 87.5409 151.6568 88.6368 155.2999 85.5799 153.1317 82.4538 155.2999 83.5715 151.7229 80.5433 149.4197 84.2907 149.3769"></polygon>
            </g>
        </g>
    </g>
</svg>